<svg xmlns="http://www.w3.org/2000/svg" width="500" height="500" viewBox="0 0 500 500">
  <!-- Background rectangle -->
  <rect width="500" height="500" fill="transparent"/>
  
  <!-- Alternate paper in background -->
  <rect x="90" y="50" width="320" height="400" rx="20" ry="20" fill="#f0f4ff" transform="rotate(3 250 250)" filter="drop-shadow(0 10px 20px rgba(0,0,0,0.1))"/>
  
  <!-- Main paper with lines -->
  <rect x="90" y="50" width="320" height="400" rx="20" ry="20" fill="#f5f7ff" transform="rotate(-3 250 250)" filter="drop-shadow(0 10px 20px rgba(0,0,0,0.1))"/>
  
  <!-- Paper lines -->
  <rect x="130" y="130" width="224" height="1" fill="rgba(79, 70, 229, 0.1)"/>
  <rect x="130" y="160" width="224" height="1" fill="rgba(79, 70, 229, 0.1)"/>
  <rect x="130" y="190" width="224" height="1" fill="rgba(79, 70, 229, 0.1)"/>
  <rect x="130" y="220" width="224" height="1" fill="rgba(79, 70, 229, 0.1)"/>
  <rect x="130" y="250" width="224" height="1" fill="rgba(79, 70, 229, 0.1)"/>
  <rect x="130" y="280" width="224" height="1" fill="rgba(79, 70, 229, 0.1)"/>
  <rect x="130" y="310" width="224" height="1" fill="rgba(79, 70, 229, 0.1)"/>
  
  <!-- Text lines -->
  <rect x="140" y="140" width="200" height="8" rx="4" ry="4" fill="rgba(79, 70, 229, 0.2)"/>
  <rect x="140" y="180" width="170" height="8" rx="4" ry="4" fill="rgba(79, 70, 229, 0.2)"/>
  <rect x="140" y="220" width="220" height="8" rx="4" ry="4" fill="rgba(79, 70, 229, 0.2)"/>
  <rect x="140" y="260" width="190" height="8" rx="4" ry="4" fill="rgba(79, 70, 229, 0.2)"/>
  <rect x="140" y="300" width="205" height="8" rx="4" ry="4" fill="rgba(79, 70, 229, 0.2)"/>
  
  <!-- Paper folded corner -->
  <path d="M390,50 L390,120 L320,50 Z" fill="#4f46e5" transform="rotate(-3 250 250)"/>
  
  <!-- Sparkle icon -->
  <path d="M320,80 C320.747,80 321.386,80.544 321.477,81.278 L321.735,82.314 C321.971,83.254 322.705,83.988 323.645,84.224 L324.681,84.482 C325.415,84.573 325.958,85.211 325.958,85.958 C325.958,86.705 325.415,87.344 324.681,87.435 L323.645,87.693 C322.705,87.929 321.971,88.662 321.735,89.602 L321.477,90.638 C321.386,91.373 320.747,91.916 320,91.916 C319.253,91.916 318.614,91.373 318.523,90.638 L318.265,89.602 C318.029,88.662 317.295,87.929 316.355,87.693 L315.319,87.435 C314.585,87.344 314.042,86.705 314.042,85.958 C314.042,85.211 314.585,84.573 315.319,84.482 L316.355,84.224 C317.295,83.988 318.029,83.254 318.265,82.314 L318.523,81.278 C318.614,80.544 319.253,80 320,80 Z" fill="#4f46e5" transform="scale(1.5) translate(20, 0)"/>
  
  <!-- Logo text -->
  <text x="250" y="450" font-family="Arial, sans-serif" font-weight="bold" font-size="48" text-anchor="middle" fill="#4f46e5">Draftly</text>
</svg> 